<svg width="32" height="32" viewBox="0 0 32 32" fill="none" xmlns="http://www.w3.org/2000/svg">
<path d="M3.40624 3.96899L3.34424 5.24999L3.00024 14.031L2.96924 14.812L3.71924 15.032L10.1252 16.969L4.68724 20.75L3.15724 21.813L4.87524 22.5L7.71924 23.625L8.09424 23.781L8.46924 23.625L18.4692 19.469L24.8752 21.406C26.5632 21.914 28.3672 20.934 28.8752 19.25C29.3832 17.562 28.4022 15.758 26.7192 15.25L21.0302 13.5L17.2502 7.24999L17.0312 6.90599L16.6562 6.78099L14.0002 6.06299L12.5312 5.68799L12.7502 7.18799L13.2812 11.094L9.03124 9.78099L7.40624 5.59399L7.21924 5.12499L6.75024 4.96899L4.62524 4.34399L3.40624 3.96899ZM5.28124 6.62499L5.71924 6.74999L7.31224 10.938L7.46924 11.406L7.93724 11.531L26.1252 17.156C26.2783 17.1992 26.4212 17.2726 26.5454 17.3719C26.6697 17.4712 26.7727 17.5945 26.8485 17.7343C26.9243 17.8741 26.9713 18.0277 26.9867 18.1861C27.0021 18.3444 26.9856 18.5042 26.9382 18.656C26.8951 18.8091 26.8217 18.952 26.7223 19.0762C26.623 19.2004 26.4998 19.3035 26.3599 19.3793C26.2201 19.4551 26.0665 19.5021 25.9082 19.5175C25.7499 19.5329 25.5901 19.5164 25.4382 19.469L18.6882 17.437L18.3442 17.344L18.0312 17.469L8.09424 21.625L7.34424 21.312L12.9692 17.437L14.6882 16.25L12.6882 15.656L5.03124 13.344L5.28124 6.62499ZM14.9062 8.40599L15.7192 8.62499L18.1562 12.594L15.3442 11.75L14.9062 8.40599ZM20.5002 21C20.1024 21 19.7209 21.158 19.4396 21.4393C19.1583 21.7206 19.0002 22.1022 19.0002 22.5C19.0002 22.8978 19.1583 23.2793 19.4396 23.5607C19.7209 23.842 20.1024 24 20.5002 24C20.8981 24 21.2796 23.842 21.5609 23.5607C21.8422 23.2793 22.0002 22.8978 22.0002 22.5C22.0002 22.1022 21.8422 21.7206 21.5609 21.4393C21.2796 21.158 20.8981 21 20.5002 21ZM3.00024 26V28H29.0002V26H3.00024Z" fill="black"/>
</svg>
