<svg width="32" height="32" viewBox="0 0 32 32" fill="none" xmlns="http://www.w3.org/2000/svg">
<path d="M25.719 4.78103C25.3245 4.81796 24.9417 4.93502 24.594 5.12503L19.875 7.62503L13.5 6.06203L13.125 5.96903L12.75 6.15603L10.594 7.40603L9.313 8.15603L10.5 9.06203L13.219 11.125L9.813 12.938L6.156 11.281L5.719 11.094L5.281 11.313L3.531 12.25L2.375 12.875L3.25 13.813L8.656 19.625L9.156 20.219L9.844 19.844L15 17.094L13.969 22.781L13.625 24.594L15.344 23.875L17.906 22.781L18.281 22.625L18.438 22.25L22.156 13.219L27.406 10.406C28.852 9.62903 29.434 7.78903 28.656 6.34403C28.4682 5.99904 28.2143 5.69446 27.9087 5.44772C27.6031 5.20097 27.2518 5.0169 26.875 4.90603C26.5009 4.79229 26.1088 4.74989 25.719 4.78103ZM25.906 6.78103C26.031 6.77303 26.16 6.77703 26.281 6.81303C26.4703 6.86581 26.6394 6.97435 26.7661 7.12452C26.8929 7.27469 26.9716 7.45954 26.9918 7.65503C27.0121 7.85051 26.9731 8.04757 26.8799 8.22057C26.7866 8.39357 26.6434 8.5345 26.469 8.62503L20.875 11.656L20.562 11.812L20.437 12.156L16.719 21.094L16.281 21.281L17.344 15.375L17.719 13.344L15.906 14.313L9.594 17.719L5.625 13.406L5.781 13.312L9.438 14.938L9.906 15.156L10.312 14.906L25.532 6.87503C25.6483 6.81661 25.7759 6.78452 25.906 6.78103ZM13.375 8.09403L17.219 9.03103L15.156 10.094L12.906 8.37503L13.375 8.09403ZM3 26V28H29V26H3Z" fill="black"/>
</svg>
